<?xml version="1.0" encoding="UTF-8"?>
<svg width="28px" height="28px" viewBox="0 0 28 28" version="1.1" xmlns="http://www.w3.org/2000/svg" xmlns:xlink="http://www.w3.org/1999/xlink">
    <!-- Generator: Sketch 61.2 (89653) - https://sketch.com -->
    <title>3/33</title>
    <desc>Created with Sketch.</desc>
    <g id="3/33" stroke="none" stroke-width="1" fill="none" fill-rule="evenodd">
        <path d="M17.4202014,4.60307379 C22.6099805,6.49199888 25.2858513,12.2304224 23.3969262,17.4202014 C21.5080011,22.6099805 15.7695776,25.2858513 10.5797986,23.3969262 C8.15357913,22.5138546 6.27678902,20.7894525 5.1589772,18.6730993 L11.0951302,14.8427218 C11.5591918,14.5432802 11.6926427,13.9243386 11.3932011,13.460277 C11.316203,13.3409486 11.2146717,13.239389 11.0953649,13.1623576 L5.15701107,9.32820982 C7.45074126,4.97326304 12.6657067,2.87257923 17.4202014,4.60307379 Z M2.83974596,18.1339746 C3.31803859,17.8578322 3.92962899,18.0217074 4.20577137,18.5 C4.48191374,18.9782926 4.31803859,19.589883 3.83974596,19.8660254 C3.36145334,20.1421678 2.74986293,19.9782926 2.47372056,19.5 C2.19757818,19.0217074 2.36145334,18.410117 2.83974596,18.1339746 Z M2,13 C2.55228475,13 3,13.4477153 3,14 C3,14.5522847 2.55228475,15 2,15 C1.44771525,15 1,14.5522847 1,14 C1,13.4477153 1.44771525,13 2,13 Z M13,8.00272152 L12,8.00272152 C11.4477153,8.00272152 11,8.45043677 11,9.00272152 C11,9.51555736 11.3860402,9.93822868 11.8833789,9.99599379 L12,10.0027215 L13,10.0027215 C13.5522847,10.0027215 14,9.55500627 14,9.00272152 C14,8.45043677 13.5522847,8.00272152 13,8.00272152 Z M2.47372056,8.5 C2.74986293,8.02170738 3.36145334,7.85783222 3.83974596,8.1339746 C4.31803859,8.41011697 4.48191374,9.02170738 4.20577137,9.5 C3.92962899,9.97829262 3.31803859,10.1421678 2.83974596,9.8660254 C2.36145334,9.58988303 2.19757818,8.97829262 2.47372056,8.5 Z" id="形状" fill="#236BF4"></path>
    </g>
</svg>