<?xml version="1.0" encoding="UTF-8"?>
<svg width="28px" height="28px" viewBox="0 0 28 28" version="1.1" xmlns="http://www.w3.org/2000/svg" xmlns:xlink="http://www.w3.org/1999/xlink">
    <!-- Generator: Sketch 61.2 (89653) - https://sketch.com -->
    <title>3/33备份</title>
    <desc>Created with Sketch.</desc>
    <g id="3/33备份" stroke="none" stroke-width="1" fill="none" fill-rule="evenodd">
        <path d="M16.9915378,4.60579531 C22.1813168,6.4947204 24.8571876,12.2331439 22.9682625,17.422923 C21.0793374,22.612702 15.3409139,25.2885728 10.1511349,23.3996477 C6.5542394,22.0904848 4.16490002,18.9322149 3.66589352,15.3890575 L9.0171796,14.4972498 C9.28956537,14.4518559 9.47357864,14.1942446 9.42818474,13.9218588 C9.3930917,13.7112833 9.22817526,13.5462155 9.01763202,13.5109293 L3.66615594,12.6140434 C3.76218505,11.9340349 3.93012444,11.2536895 4.17441012,10.5825201 C6.06333521,5.39274105 11.8017587,2.71687022 16.9915378,4.60579531 Z M12,7 C11.4871642,7 11.0644928,7.38604019 11.0067277,7.88337887 L11,8 L11,10 C11,10.5522847 11.4477153,11 12,11 C12.5128358,11 12.9355072,10.6139598 12.9932723,10.1166211 L13,10 L13,8 C13,7.44771525 12.5522847,7 12,7 Z" id="形状" fill="#236BF4"></path>
    </g>
</svg>