<?xml version="1.0" encoding="UTF-8"?>
<svg width="28px" height="28px" viewBox="0 0 28 28" version="1.1" xmlns="http://www.w3.org/2000/svg" xmlns:xlink="http://www.w3.org/1999/xlink">
    <!-- Generator: Sketch 61.2 (89653) - https://sketch.com -->
    <title>3/pin1备份</title>
    <desc>Created with Sketch.</desc>
    <g id="3/pin1备份" stroke="none" stroke-width="1" fill="none" fill-rule="evenodd">
        <path d="M24.9299207,8.2571368 C26.2227644,9.81547301 27,11.81697 27,14 C27,18.9705627 22.9705627,23 18,23 L10.999,23 L11,25 L6,21.5 L11,18 L10.999,20 L18,20 C21.3137085,20 24,17.3137085 24,14 C24,12.4512854 23.4132308,11.0396181 22.4498771,9.97518285 L24.9299207,8.2571368 Z M19,3 L23,6.5 L19,10 L18.9998043,8.08292561 C18.7465429,8.04044503 18.4879019,8.01383033 18.2249383,8.00413847 L18,8 L11,8 C7.6862915,8 5,10.6862915 5,14 C5,15.5491973 5.58713507,16.9612619 6.55102388,18.0258125 L4.07007928,19.7428632 C2.77723563,18.184527 2,16.18303 2,14 C2,9.02943725 6.02943725,5 11,5 L18,5 C18.337942,5 18.6715337,5.01862592 18.9998045,5.05490717 L19,3 Z M16,10 L16,18 L13,18 L13,10 L16,10 Z" id="形状" fill="#4883F4"></path>
    </g>
</svg>