<?xml version="1.0" encoding="UTF-8"?>
<svg width="28px" height="28px" viewBox="0 0 28 28" version="1.1" xmlns="http://www.w3.org/2000/svg" xmlns:xlink="http://www.w3.org/1999/xlink">
    <!-- Generator: Sketch 61.2 (89653) - https://sketch.com -->
    <title>3/pin1</title>
    <desc>Created with Sketch.</desc>
    <g id="3/pin1" stroke="none" stroke-width="1" fill="none" fill-rule="evenodd">
        <path d="M5.80865608,10.0003288 C6.94230882,10.0075614 10,10.173913 10,14 C10,17.9148936 6.16840199,17.9981892 5.06783661,17.9999615 L5,18 L5,21.5 C5,22.3284271 4.32842712,23 3.5,23 C2.72030388,23 2.07955132,22.4051119 2.00686658,21.64446 L2,21.5 L2,12 C2,10.9456382 2.81587779,10.0818349 3.85073766,10.0054857 L4,10 L5.80865608,10.0003288 Z M13,10 C14.0543618,10 14.9181651,10.8158778 14.9945143,11.8507377 L15,12 L15,21 C15,22.1045695 14.1045695,23 13,23 C11.9456382,23 11.0818349,22.1841222 11.0054857,21.1492623 L11,21 L11,12 C11,10.8954305 11.8954305,10 13,10 Z M18.5395994,10.0002316 C19.3167694,10.0139125 19.9450078,10.6181161 20.0041103,11.3775789 L20.0084199,11.5216914 L20,12 L23,16.5 L23.0588858,11.4619137 C23.0683548,10.6517719 23.7277893,10 24.5379864,10 C25.2979373,10 25.9224633,10.579823 25.9933073,11.3212119 L26,11.4620136 L26,21.5 C26,22.3284271 25.3284271,23 24.5,23 C23.7203039,23 23.0795513,22.4051119 23.0068666,21.64446 L23,21.5 L23,21 L20,16.5 L20.0269636,21.4780952 C20.0269858,22.3222907 19.3492765,23 18.5132798,23 C17.7194392,23 17.0675539,22.392217 16.9975723,21.6165993 L16.9913527,21.4780729 L16.9913527,11.5219271 C16.9913527,10.7280865 17.5991357,10.0762012 18.3747534,10.0062196 L18.5132798,10 L18.5395994,10.0002316 Z M6,13 L5,13 L5,15 L6,15 C6.55228475,15 7,14.5522847 7,14 C7,13.4477153 6.55228475,13 6,13 L6,13 Z M15.5,6 C16.3284271,6 17,6.67157288 17,7.5 C17,8.32842712 16.3284271,9 15.5,9 L10.5,9 C9.67157288,9 9,8.32842712 9,7.5 C9,6.67157288 9.67157288,6 10.5,6 L15.5,6 Z" id="形状结合" fill="#4883F4" fill-rule="nonzero"></path>
        <polygon id="路径" fill="#1B55C4" fill-rule="nonzero" points="20 12 23 16.5 23 21 20 16.5"></polygon>
    </g>
</svg>