<?xml version="1.0" encoding="UTF-8"?>
<svg width="80px" height="32px" viewBox="0 0 80 32" version="1.1" xmlns="http://www.w3.org/2000/svg" xmlns:xlink="http://www.w3.org/1999/xlink">
    <!-- Generator: Sketch 61.2 (89653) - https://sketch.com -->
    <title>3/上册2</title>
    <desc>Created with Sketch.</desc>
    <g id="3/上册2" stroke="none" stroke-width="1" fill="none" fill-rule="evenodd">
        <path d="M20.0475891,21.755056 L24.8107359,21.6192426 L24.2882248,10.9404221 C24.2425918,10.0077981 24.9283931,9.20869492 25.8414036,9.09921953 L25.9794673,9.08806308 L25.9794673,9.08806308 C26.9625415,9.04676888 27.7938281,9.80839764 27.8385065,10.7913239 L27.9463252,13.1633353 L31.1474661,12.6602989 C32.1143014,12.5083676 33.0220642,13.1665702 33.1781861,14.1327376 C33.3341318,15.0978142 32.6784614,16.0066701 31.7134579,16.1630672 L28.1231979,16.7449369 L28.348719,21.5109496 L33.7387522,21.3498344 C34.6575713,21.3223697 35.4246858,22.0449552 35.4521505,22.9637743 C35.4531934,22.9986637 35.4531385,23.0335772 35.451986,23.0684631 C35.419096,24.0639687 34.6172591,24.862011 33.6216087,24.8901782 L20.2733431,25.2678044 C19.2951741,25.2954771 18.4735825,24.5376723 18.4222834,23.5604576 C18.3725513,22.6130939 19.1002254,21.8047881 20.0475891,21.755056 Z M41.8647244,9.11628313 C42.4796623,8.77429982 43.2324007,8.57800556 44.1300898,8.55066139 C45.0372811,8.52302778 45.789318,8.67581627 46.3941092,8.97846375 C47.0582544,9.31081302 47.5609253,9.82208762 47.8965974,10.5178042 C48.37204,11.5032098 48.4968647,12.9214627 48.1914068,14.7903946 L48.9846319,14.7726799 C48.9263627,12.8209322 49.1523989,11.3193609 49.623963,10.2582505 C49.9419586,9.54269902 50.3718166,9.00699919 50.8944838,8.63471696 C51.4311317,8.25247667 52.0710124,8.03617544 52.8207689,8.00402582 C53.5755531,7.97166062 54.2286663,8.1350532 54.7862674,8.47214539 C55.3321318,8.80214228 55.7930196,9.30452049 56.1494163,9.99853447 C56.6712801,11.014764 56.9716096,12.4899078 57.0102632,14.436425 C58.1603083,15.0491494 58.4107145,15.6971808 58.3790724,16.3172417 C58.3566589,16.7564587 58.1785497,17.2068671 57.8320787,17.6512569 L57.2152781,17.9704369 L57.5807936,22.995097 L57.111322,24.168776 L54.8876929,26 C53.4326509,25.5324688 53.049285,24.9717033 52.8623126,24.4847112 C52.7282219,24.1354558 52.7210963,23.7879905 52.6626193,23.4300185 L53.9856395,22.1901286 L53.6934956,18.1308666 L52.4938959,18.1912781 L52.2521759,24.7177188 C51.640665,25.4992533 51.0083023,25.7566727 50.4198671,25.7213258 C49.8585639,25.6876088 49.2589811,25.3706197 48.6954174,24.5936097 L48.9330539,18.3236614 L48.0082536,18.3377447 L48.0082536,22.8740378 L47.7142397,23.6678752 L46.0608773,25.8461147 C43.3077712,25.3046319 43.7444292,24.4205912 43.3016648,23.7707432 L44.4712014,22.1388874 L44.4712014,18.4875066 L43.3746061,18.5358858 L42.9863984,25.0383638 C41.7763315,25.5426529 40.6129638,25.265624 39.4469489,24.9232175 L39.8115268,18.6870151 C38.53468,18.0118543 38.3476291,17.3073411 38.4586149,16.6319169 C38.538344,16.1467109 38.8121732,15.6492089 39.2201283,15.1660071 L39.8554326,15.1444713 C39.6256357,13.2284841 39.8107956,11.7569424 40.342297,10.7129786 C40.6993533,10.0116561 41.2086102,9.48116569 41.8647244,9.11628313 Z M52.5104721,14.637428 L53.5342288,14.5898114 C53.5712279,13.5418517 53.5130804,12.7251187 53.3415973,12.1426364 C53.2747644,11.915623 53.1995424,11.732115 52.8368465,11.5803106 C52.7282632,11.6916402 52.6676048,11.8717984 52.6120153,12.0937034 C52.4619169,12.6928747 52.4341249,13.5415697 52.5104721,14.637428 Z M43.4254995,14.9787709 L44.621158,14.9235867 C44.8188257,13.8922547 44.8663796,13.0980861 44.72376,12.5449687 C44.6824858,12.3848963 44.6331947,12.2482442 44.1857585,12.0965841 C44.0242023,12.1029944 43.8829102,12.1374767 43.7731026,12.2274612 C43.6422533,12.3346889 43.5601502,12.50089 43.4962011,12.7036875 C43.3237943,13.2504289 43.3106355,14.0103134 43.4254995,14.9787709 Z" id="形状" fill="#DBDCE2" fill-rule="nonzero"></path>
    </g>
</svg>