<?xml version="1.0" encoding="UTF-8"?>
<svg width="80px" height="32px" viewBox="0 0 80 32" version="1.1" xmlns="http://www.w3.org/2000/svg" xmlns:xlink="http://www.w3.org/1999/xlink">
    <!-- Generator: Sketch 61.2 (89653) - https://sketch.com -->
    <title>上册</title>
    <desc>Created with Sketch.</desc>
    <defs>
        <linearGradient x1="0%" y1="39.8556112%" x2="100%" y2="60.1443888%" id="linearGradient-1">
            <stop stop-color="#49A4FB" offset="0%"></stop>
            <stop stop-color="#236BF4" offset="100%"></stop>
        </linearGradient>
    </defs>
    <g id="上册" stroke="none" stroke-width="1" fill="none" fill-rule="evenodd">
        <path d="M18.3784405,22.5509342 L24.1097534,22.3875151 L23.4810357,9.53809772 C23.4261273,8.4159068 24.2513258,7.45437648 25.3499165,7.32264892 L25.5160433,7.3092248 L25.5160433,7.3092248 C26.698939,7.25953706 27.6991943,8.17597589 27.7529542,9.35869352 L27.8826884,12.2128444 L31.7344991,11.6075598 C32.897855,11.4247467 33.9901314,12.2167368 34.177987,13.3792892 C34.3656304,14.540529 33.5766873,15.6341206 32.4155354,15.8223073 L28.0955125,16.522449 L28.3668734,22.2572102 L34.8524948,22.0633465 C35.9580747,22.0302992 36.8811144,22.8997588 36.9141616,24.0053387 C36.9154165,24.0473198 36.9153504,24.0893299 36.9139636,24.1313068 C36.8743884,25.3291607 35.9095686,26.2894145 34.7115405,26.323307 L18.6500817,26.7776903 C17.4730883,26.8109877 16.4844984,25.8991501 16.4227722,24.7233049 C16.3629314,23.5833784 17.238514,22.6107749 18.3784405,22.5509342 Z M44.6301671,7.34318091 C45.3700985,6.93168543 46.2758399,6.69549204 47.3559949,6.66258984 C48.4475835,6.62933937 49.3524809,6.81318394 50.080203,7.1773481 C50.8793436,7.57725129 51.4841883,8.19244851 51.8880898,9.02957772 C52.4601716,10.2152787 52.6103685,11.9218083 52.2428227,14.1706227 L53.1972801,14.1493073 C53.127167,11.8008438 53.3991478,9.99406039 53.9665629,8.71726664 C54.3491949,7.85627087 54.8664265,7.2116837 55.4953321,6.7637307 C56.14106,6.30379554 56.9110041,6.04352853 57.8131575,6.00484412 C58.7213605,5.96590031 59.5072266,6.16250436 60.1781668,6.56811453 C60.8349846,6.96518721 61.3895534,7.56967974 61.8183918,8.40476028 C62.4463306,9.6275505 62.8077057,11.4025347 62.8542161,13.7447046 C64.2380215,14.4819725 64.5393257,15.261724 64.501252,16.0078196 C64.4742827,16.5363127 64.2599707,17.078272 63.8430754,17.6129892 L63.1009028,17.9970463 L63.5407136,24.0430281 L62.9758163,25.4552713 L60.3002082,27.6587133 C58.5494118,27.0961509 58.0881222,26.4214032 57.8631454,25.8354241 C57.7017992,25.4151784 57.6932252,24.9970866 57.622862,24.5663525 L59.2148018,23.0744403 L58.8632762,18.1900853 L57.4198437,18.2627761 L57.1289912,26.1157933 C56.3931834,27.0561839 55.6322856,27.3659268 54.9242439,27.3233953 C54.2488492,27.2828249 53.5273941,26.901404 52.8492794,25.9664575 L53.1352183,18.4220679 L52.0224414,18.4390138 L52.0224414,23.8973622 L51.6686657,24.8525565 L49.6792377,27.4735489 C46.3665302,26.8220034 46.8919442,25.7582709 46.3591826,24.9763336 L47.7664414,23.0127838 L47.7664414,18.6192166 L46.4469501,18.6774294 L45.9798347,26.5016132 C44.5238072,27.1084049 43.1239713,26.7750667 41.72095,26.363062 L42.1596328,18.8592776 C40.6232517,18.0468823 40.3981805,17.1991685 40.5317255,16.3864563 C40.6276605,15.8026264 40.9571487,15.2040012 41.4480255,14.6225829 L42.2124629,14.5966698 C41.9359571,12.2912354 42.158753,10.5205855 42.7982882,9.26442364 C43.2279205,8.42054898 43.8406899,7.78223017 44.6301671,7.34318091 Z M57.4397891,13.9865639 L58.6716365,13.9292686 C58.7161562,12.6682987 58.6461895,11.685555 58.4398504,10.9846763 C58.3594329,10.7115198 58.2689211,10.4907117 57.832503,10.3080512 C57.7018488,10.4420099 57.6288609,10.6587873 57.5619723,10.9257971 C57.3813645,11.646757 57.3479234,12.6679594 57.4397891,13.9865639 Z M46.5081882,14.3972888 L47.9468784,14.3308877 C48.1847245,13.0899253 48.2419442,12.1343325 48.0703355,11.4687875 C48.0206719,11.2761784 47.9613618,11.1117501 47.4229789,10.9292633 C47.2285845,10.9369767 47.058573,10.9784679 46.9264457,11.0867428 C46.7689997,11.2157657 46.6702083,11.4157493 46.5932607,11.6597677 C46.3858103,12.3176408 46.3699767,13.2319809 46.5081882,14.3972888 Z" id="形状" fill="url(#linearGradient-1)" fill-rule="nonzero"></path>
    </g>
</svg>