<?xml version="1.0" encoding="UTF-8"?>
<svg width="80px" height="32px" viewBox="0 0 80 32" version="1.1" xmlns="http://www.w3.org/2000/svg" xmlns:xlink="http://www.w3.org/1999/xlink">
    <!-- Generator: Sketch 61.2 (89653) - https://sketch.com -->
    <title>3/上册</title>
    <desc>Created with Sketch.</desc>
    <g id="3/上册" stroke="none" stroke-width="1" fill="none" fill-rule="evenodd">
        <path d="M35.9226667,22.6225455 L36.0946667,22.6145455 C36.2626667,22.5985455 36.4226667,22.5545455 36.5746667,22.4825455 C36.7266667,22.4105455 36.9146667,22.3025455 37.1386667,22.1585455 C37.6506667,21.8385455 38.0666667,21.5265455 38.3866667,21.2225455 C38.7066667,20.9185455 38.9466667,20.5905455 39.1066667,20.2385455 C39.1546667,20.1265455 39.1346667,20.0305455 39.0466667,19.9505455 C38.9586667,19.8705455 38.8346667,19.8225455 38.6746667,19.8065455 C38.2106667,19.7585455 37.8066667,19.7225455 37.4626667,19.6985455 C37.1186667,19.6745455 36.7986667,19.6505455 36.5026667,19.6265455 C36.2066667,19.6025455 35.9266667,19.5825455 35.6626667,19.5665455 C35.3986667,19.5505455 35.1306667,19.5345455 34.8586667,19.5185455 C34.4906667,19.5025455 34.0426667,19.4825455 33.5146667,19.4585455 C32.9866667,19.4345455 32.4106667,19.4145455 31.7866667,19.3985455 C31.1626667,19.3825455 30.5146667,19.3705455 29.8426667,19.3625455 C29.1706667,19.3545455 28.4986667,19.3505455 27.8266667,19.3505455 C27.6026667,19.3505455 27.4586667,19.3105455 27.3946667,19.2305455 C27.3306667,19.1505455 27.2986667,18.9905455 27.2986667,18.7505455 C27.3146667,18.0625455 27.3266667,17.3825455 27.3346667,16.7105455 C27.3426667,16.0385455 27.3626667,15.3985455 27.3946667,14.7905455 C27.4106667,14.5825455 27.4466667,14.4465455 27.5026667,14.3825455 C27.5586667,14.3185455 27.7146667,14.2865455 27.9706667,14.2865455 C28.6266667,14.2705455 29.3226667,14.2705455 30.0586667,14.2865455 C30.7946667,14.3025455 31.6986667,14.3265455 32.7706667,14.3585455 C33.1706667,14.3745455 33.4386667,14.3265455 33.5746667,14.2145455 C33.7106667,14.1025455 33.7786667,13.9105455 33.7786667,13.6385455 C33.7786667,13.3185455 33.7066667,13.1025455 33.5626667,12.9905455 C33.4186667,12.8785455 33.1626667,12.8065455 32.7946667,12.7745455 C32.4586667,12.7585455 32.0906667,12.7425455 31.6906667,12.7265455 C31.2906667,12.7105455 30.8786667,12.6985455 30.4546667,12.6905455 C30.0306667,12.6825455 29.6066667,12.6825455 29.1826667,12.6905455 C28.7586667,12.6985455 28.3546667,12.7025455 27.9706667,12.7025455 C27.7466667,12.7025455 27.6146667,12.6705455 27.5746667,12.6065455 C27.5346667,12.5425455 27.5306667,12.3985455 27.5626667,12.1745455 C27.5786667,12.0785455 27.5866667,11.9865455 27.5866667,11.8985455 C27.5866667,11.8105455 27.5946667,11.7265455 27.6106667,11.6465455 C27.6906667,11.0225455 27.6666667,10.5345455 27.5386667,10.1825455 C27.4106667,9.83054545 27.0746667,9.56654545 26.5306667,9.39054545 C26.1786667,9.27854545 25.8746667,9.24654545 25.6186667,9.29454545 C25.3626667,9.34254545 25.1546667,9.44654545 24.9946667,9.60654545 C24.8346667,9.76654545 24.7346667,9.98254545 24.6946667,10.2545455 C24.6546667,10.5265455 24.6746667,10.8385455 24.7546667,11.1905455 C24.8026667,11.3665455 24.8426667,11.5985455 24.8746667,11.8865455 C24.9066667,12.1745455 24.9266667,12.5985455 24.9346667,13.1585455 C24.9426667,13.7185455 24.9386667,14.4505455 24.9226667,15.3545455 C24.9066667,16.2585455 24.8746667,17.4145455 24.8266667,18.8225455 C24.8106667,19.0465455 24.7786667,19.1945455 24.7306667,19.2665455 C24.6826667,19.3385455 24.5786667,19.3745455 24.4186667,19.3745455 C23.7306667,19.3905455 23.0666667,19.4105455 22.4266667,19.4345455 C21.7866667,19.4585455 21.1786667,19.4945455 20.6026667,19.5425455 C20.2986667,19.5745455 20.0346667,19.5705455 19.8106667,19.5305455 C19.5866667,19.4905455 19.3386667,19.4225455 19.0666667,19.3265455 C18.8426667,19.2465455 18.6426667,19.2025455 18.4666667,19.1945455 C18.2906667,19.1865455 18.1066667,19.2305455 17.9146667,19.3265455 C17.7226667,19.4225455 17.5066667,19.5665455 17.2666667,19.7585455 C17.0266667,19.9505455 16.7466667,20.2145455 16.4266667,20.5505455 C16.2346667,20.7585455 16.1066667,20.9785455 16.0426667,21.2105455 C15.9786667,21.4425455 15.9866667,21.6425455 16.0666667,21.8105455 C16.1466667,21.9785455 16.3066667,22.0865455 16.5466667,22.1345455 C16.7866667,22.1825455 17.1146667,22.1105455 17.5306667,21.9185455 C17.8986667,21.7425455 18.4266667,21.5905455 19.1146667,21.4625455 C19.8026667,21.3345455 20.6186667,21.2145455 21.5626667,21.1025455 C23.5786667,20.8785455 25.2586667,20.7585455 26.6026667,20.7425455 C27.9466667,20.7265455 29.0506667,20.8305455 29.9146667,21.0545455 C30.3306667,21.1665455 30.7626667,21.2825455 31.2106667,21.4025455 C31.6586667,21.5225455 32.0986667,21.6425455 32.5306667,21.7625455 C32.9626667,21.8825455 33.3746667,21.9985455 33.7666667,22.1105455 C34.1586667,22.2225455 34.5146667,22.3265455 34.8346667,22.4225455 C35.1226667,22.5025455 35.3626667,22.5585455 35.5546667,22.5905455 C35.7466667,22.6225455 35.9266667,22.6305455 36.0946667,22.6145455 L35.9226667,22.6225455 Z M56.8906667,23.6225455 C57.0346667,23.6225455 57.2346667,23.5905455 57.4906667,23.5265455 C57.8266667,23.4465455 58.0906667,23.3665455 58.2826667,23.2865455 C58.4746667,23.2065455 58.6146667,23.0945455 58.7026667,22.9505455 C58.7906667,22.8065455 58.8346667,22.6185455 58.8346667,22.3865455 C58.8346667,22.1545455 58.8186667,21.8465455 58.7866667,21.4625455 C58.7226667,20.8385455 58.6666667,20.2105455 58.6186667,19.5785455 C58.5706667,18.9465455 58.5306667,18.1825455 58.4986667,17.2865455 C58.4826667,17.1105455 58.5026667,17.0025455 58.5586667,16.9625455 C58.6146667,16.9225455 58.7146667,16.9185455 58.8586667,16.9505455 C59.1306667,17.0305455 59.3706667,17.1065455 59.5786667,17.1785455 C59.7866667,17.2505455 59.9466667,17.3185455 60.0586667,17.3825455 C60.4106667,17.5905455 60.7826667,17.6865455 61.1746667,17.6705455 C61.5666667,17.6545455 61.8746667,17.5745455 62.0986667,17.4305455 C62.3226667,17.2865455 62.5506667,17.0465455 62.7826667,16.7105455 C63.0146667,16.3745455 63.2026667,16.0225455 63.3466667,15.6545455 C63.4586667,15.3825455 63.4746667,15.2105455 63.3946667,15.1385455 C63.3146667,15.0665455 63.1386667,15.0305455 62.8666667,15.0305455 C62.7066667,15.0305455 62.2586667,15.0265455 61.5226667,15.0185455 C60.7866667,15.0105455 59.8426667,14.9905455 58.6906667,14.9585455 C58.5786667,14.9585455 58.5026667,14.9345455 58.4626667,14.8865455 C58.4226667,14.8385455 58.4026667,14.7345455 58.4026667,14.5745455 C58.4026667,13.7585455 58.4106667,13.0705455 58.4266667,12.5105455 C58.4426667,11.9505455 58.4746667,11.5825455 58.5226667,11.4065455 C58.6346667,10.9265455 58.6586667,10.5665455 58.5946667,10.3265455 C58.5306667,10.0865455 58.3626667,9.87854545 58.0906667,9.70254545 C57.3866667,9.25454545 56.7786667,9.29454545 56.2666667,9.82254545 C56.2186667,9.87054545 56.1386667,9.90654545 56.0266667,9.93054545 C55.9146667,9.95454545 55.7226667,9.96654545 55.4506667,9.96654545 L55.4506667,9.96654545 L55.1506667,9.96654545 C55.0466667,9.96654545 54.9146667,9.95054545 54.7546667,9.91854545 C54.5626667,9.90254545 54.4186667,9.82254545 54.3226667,9.67854545 C54.0986667,9.39054545 53.7546667,9.29454545 53.2906667,9.39054545 C52.9866667,9.45454545 52.7946667,9.66654545 52.7146667,10.0265455 C52.6346667,10.3865455 52.6586667,10.8465455 52.7866667,11.4065455 C52.8826667,11.8705455 52.9586667,12.3865455 53.0146667,12.9545455 C53.0706667,13.5225455 53.0906667,14.0545455 53.0746667,14.5505455 C53.0746667,14.7585455 52.9546667,14.8465455 52.7146667,14.8145455 C52.4906667,14.7825455 52.2746667,14.7665455 52.0666667,14.7665455 C51.8586667,14.7665455 51.6506667,14.7745455 51.4426667,14.7905455 C51.2026667,14.7905455 51.0826667,14.6465455 51.0826667,14.3585455 C51.1306667,13.1905455 51.2026667,12.4225455 51.2986667,12.0545455 C51.4746667,11.3825455 51.5266667,10.8585455 51.4546667,10.4825455 C51.3826667,10.1065455 51.1786667,9.80654545 50.8426667,9.58254545 C50.6186667,9.43854545 50.3746667,9.37054545 50.1106667,9.37854545 C49.8466667,9.38654545 49.6026667,9.45454545 49.3786667,9.58254545 C49.2026667,9.69454545 49.0306667,9.76254545 48.8626667,9.78654545 C48.6946667,9.81054545 48.4666667,9.80654545 48.1786667,9.77454545 C48.0506667,9.75854545 47.8826667,9.75054545 47.6746667,9.75054545 C47.4666667,9.75054545 47.3386667,9.75854545 47.2906667,9.77454545 C47.2426667,9.79054545 47.1866667,9.77854545 47.1226667,9.73854545 C47.0586667,9.69854545 46.9866667,9.61454545 46.9066667,9.48654545 C46.7786667,9.31054545 46.6026667,9.17454545 46.3786667,9.07854545 C46.1546667,8.98254545 45.8826667,8.97454545 45.5626667,9.05454545 C45.2746667,9.13454545 45.0746667,9.35454545 44.9626667,9.71454545 C44.8506667,10.0745455 44.8746667,10.5425455 45.0346667,11.1185455 C45.1626667,11.5345455 45.2626667,12.0385455 45.3346667,12.6305455 C45.4066667,13.2225455 45.4506667,13.8305455 45.4666667,14.4545455 C45.4666667,14.5985455 45.4306667,14.6985455 45.3586667,14.7545455 C45.2866667,14.8105455 45.1146667,14.8625455 44.8426667,14.9105455 C44.5546667,14.9585455 44.2706667,14.9945455 43.9906667,15.0185455 C43.7106667,15.0425455 43.4586667,15.0545455 43.2346667,15.0545455 C43.0106667,15.0545455 42.8226667,15.0425455 42.6706667,15.0185455 C42.5186667,14.9945455 42.4186667,14.9665455 42.3706667,14.9345455 C42.1946667,14.7905455 42.0186667,14.7225455 41.8426667,14.7305455 C41.6666667,14.7385455 41.4186667,14.8385455 41.0986667,15.0305455 C40.7786667,15.2225455 40.5186667,15.3945455 40.3186667,15.5465455 C40.1186667,15.6985455 39.9626667,15.8385455 39.8506667,15.9665455 C39.7386667,16.0945455 39.6666667,16.2145455 39.6346667,16.3265455 C39.6026667,16.4385455 39.5946667,16.5425455 39.6106667,16.6385455 C39.6746667,17.1345455 39.8546667,17.4265455 40.1506667,17.5145455 C40.4466667,17.6025455 40.9946667,17.4785455 41.7946667,17.1425455 C42.0506667,17.0305455 42.2906667,16.9345455 42.5146667,16.8545455 C42.7386667,16.7745455 42.9706667,16.7065455 43.2106667,16.6505455 C43.4506667,16.5945455 43.7066667,16.5505455 43.9786667,16.5185455 C44.2506667,16.4865455 44.5546667,16.4545455 44.8906667,16.4225455 C45.0826667,16.4065455 45.2146667,16.4265455 45.2866667,16.4825455 C45.3586667,16.5385455 45.3866667,16.6385455 45.3706667,16.7825455 C45.3386667,17.0545455 45.2906667,17.3105455 45.2266667,17.5505455 C45.0506667,18.1745455 44.8666667,18.6865455 44.6746667,19.0865455 C44.4826667,19.4865455 44.2426667,19.8225455 43.9546667,20.0945455 C43.6666667,20.3665455 43.3066667,20.6105455 42.8746667,20.8265455 C42.4426667,21.0425455 41.9066667,21.2705455 41.2666667,21.5105455 C41.0906667,21.5745455 40.9906667,21.6465455 40.9666667,21.7265455 C40.9426667,21.8065455 41.0026667,21.9585455 41.1466667,22.1825455 C41.6586667,22.9985455 42.3506667,23.3305455 43.2226667,23.1785455 C44.0946667,23.0265455 44.9706667,22.4225455 45.8506667,21.3665455 C46.2026667,20.9505455 46.5066667,20.3465455 46.7626667,19.5545455 C47.0186667,18.7625455 47.1866667,17.8385455 47.2666667,16.7825455 C47.2826667,16.5905455 47.3226667,16.4665455 47.3866667,16.4105455 C47.4506667,16.3545455 47.5386667,16.3265455 47.6506667,16.3265455 C47.7786667,16.3265455 47.9666667,16.3225455 48.2146667,16.3145455 C48.4626667,16.3065455 48.6506667,16.3025455 48.7786667,16.3025455 C49.0186667,16.3025455 49.1386667,16.3905455 49.1386667,16.5665455 C49.1226667,17.4305455 49.1106667,18.3265455 49.1026667,19.2545455 C49.0946667,20.1825455 49.0746667,21.2305455 49.0426667,22.3985455 C49.0266667,22.8945455 49.0706667,23.2065455 49.1746667,23.3345455 C49.2786667,23.4625455 49.5386667,23.4865455 49.9546667,23.4065455 C50.4506667,23.2945455 50.7666667,23.1745455 50.9026667,23.0465455 C51.0386667,22.9185455 51.1146667,22.6945455 51.1306667,22.3745455 C51.1306667,22.1985455 51.2266667,22.1505455 51.4186667,22.2305455 C51.6266667,22.3105455 51.8306667,22.3385455 52.0306667,22.3145455 C52.2306667,22.2905455 52.4346667,22.1985455 52.6426667,22.0385455 C52.8506667,21.8785455 53.0706667,21.6345455 53.3026667,21.3065455 C53.5346667,20.9785455 53.7786667,20.5585455 54.0346667,20.0465455 C54.1626667,19.8225455 54.2666667,19.4625455 54.3466667,18.9665455 C54.4266667,18.4705455 54.4906667,17.7265455 54.5386667,16.7345455 C54.5546667,16.4945455 54.7066667,16.3745455 54.9946667,16.3745455 C55.1546667,16.3745455 55.3226667,16.3825455 55.4986667,16.3985455 C55.6746667,16.4145455 55.8506667,16.4385455 56.0266667,16.4705455 C56.1706667,16.5025455 56.2626667,16.5385455 56.3026667,16.5785455 C56.3426667,16.6185455 56.3626667,16.7025455 56.3626667,16.8305455 L56.3626667,16.8305455 L56.3626667,22.2785455 C56.3626667,22.5985455 56.3746667,22.8585455 56.3986667,23.0585455 C56.4226667,23.2585455 56.4746667,23.4025455 56.5546667,23.4905455 C56.6346667,23.5785455 56.7466667,23.6225455 56.8906667,23.6225455 Z M48.8506667,14.7425455 L48.2026667,14.7425455 C47.8026667,14.7425455 47.5426667,14.7225455 47.4226667,14.6825455 C47.3026667,14.6425455 47.2346667,14.5345455 47.2186667,14.3585455 C47.1866667,13.9265455 47.1586667,13.4465455 47.1346667,12.9185455 C47.1106667,12.3905455 47.0906667,11.9265455 47.0746667,11.5265455 C47.0746667,11.2705455 47.1626667,11.1345455 47.3386667,11.1185455 C47.4506667,11.1025455 47.6626667,11.0865455 47.9746667,11.0705455 C48.2866667,11.0545455 48.5226667,11.0465455 48.6826667,11.0465455 C48.9066667,11.0465455 49.0466667,11.0945455 49.1026667,11.1905455 C49.1586667,11.2865455 49.1866667,11.5585455 49.1866667,12.0065455 L49.1866667,12.0065455 L49.1866667,13.1585455 C49.1866667,13.5745455 49.1786667,13.9425455 49.1626667,14.2625455 C49.1626667,14.4705455 49.1426667,14.6025455 49.1026667,14.6585455 C49.0626667,14.7145455 48.9786667,14.7425455 48.8506667,14.7425455 L48.8506667,14.7425455 Z M56.0026667,14.8865455 L55.4506667,14.8865455 C55.2586667,14.8865455 55.0826667,14.8705455 54.9226667,14.8385455 C54.7306667,14.8225455 54.6346667,14.7185455 54.6346667,14.5265455 C54.6666667,13.4225455 54.6426667,12.4465455 54.5626667,11.5985455 C54.5626667,11.3905455 54.6506667,11.2705455 54.8266667,11.2385455 C54.9706667,11.2225455 55.1266667,11.2145455 55.2946667,11.2145455 L55.2946667,11.2145455 L55.7146667,11.2145455 C56.0026667,11.2145455 56.1786667,11.2665455 56.2426667,11.3705455 C56.3066667,11.4745455 56.3386667,11.7505455 56.3386667,12.1985455 C56.3386667,12.7905455 56.3346667,13.2625455 56.3266667,13.6145455 C56.3186667,13.9665455 56.3026667,14.2385455 56.2786667,14.4305455 C56.2546667,14.6225455 56.2186667,14.7465455 56.1706667,14.8025455 C56.1226667,14.8585455 56.0666667,14.8865455 56.0026667,14.8865455 L56.0026667,14.8865455 Z M51.2986667,20.1425455 C51.1546667,20.2385455 51.0826667,20.2145455 51.0826667,20.0705455 C51.0506667,19.4465455 51.0346667,18.8545455 51.0346667,18.2945455 L51.0346667,18.2945455 L51.0346667,16.7105455 C51.0346667,16.4545455 51.1786667,16.3265455 51.4666667,16.3265455 L51.4666667,16.3265455 L52.5466667,16.3265455 C52.7546667,16.3265455 52.8826667,16.3705455 52.9306667,16.4585455 C52.9786667,16.5465455 52.9466667,16.7665455 52.8346667,17.1185455 C52.5626667,17.9825455 52.3106667,18.6465455 52.0786667,19.1105455 C51.8466667,19.5745455 51.5866667,19.9185455 51.2986667,20.1425455 Z" id="上册" fill="#2680D4" fill-rule="nonzero"></path>
    </g>
</svg>