<?xml version="1.0" encoding="UTF-8"?>
<svg width="80px" height="32px" viewBox="0 0 80 32" version="1.1" xmlns="http://www.w3.org/2000/svg" xmlns:xlink="http://www.w3.org/1999/xlink">
    <!-- Generator: Sketch 61.2 (89653) - https://sketch.com -->
    <title>3/上册</title>
    <desc>Created with Sketch.</desc>
    <defs>
        <linearGradient x1="0%" y1="39.8556112%" x2="100%" y2="60.1443888%" id="linearGradient-1">
            <stop stop-color="#49A4FB" offset="0%"></stop>
            <stop stop-color="#4883F4" offset="100%"></stop>
        </linearGradient>
        <path d="M20.0475891,21.755056 L24.8107359,21.6192426 L24.2882248,10.9404221 C24.2425918,10.0077981 24.9283931,9.20869492 25.8414036,9.09921953 L25.9794673,9.08806308 L25.9794673,9.08806308 C26.9625415,9.04676888 27.7938281,9.80839764 27.8385065,10.7913239 L27.9463252,13.1633353 L31.1474661,12.6602989 C32.1143014,12.5083676 33.0220642,13.1665702 33.1781861,14.1327376 C33.3341318,15.0978142 32.6784614,16.0066701 31.7134579,16.1630672 L28.1231979,16.7449369 L28.348719,21.5109496 L33.7387522,21.3498344 C34.6575713,21.3223697 35.4246858,22.0449552 35.4521505,22.9637743 C35.4531934,22.9986637 35.4531385,23.0335772 35.451986,23.0684631 C35.419096,24.0639687 34.6172591,24.862011 33.6216087,24.8901782 L20.2733431,25.2678044 C19.2951741,25.2954771 18.4735825,24.5376723 18.4222834,23.5604576 C18.3725513,22.6130939 19.1002254,21.8047881 20.0475891,21.755056 Z M41.8647244,9.11628313 C42.4796623,8.77429982 43.2324007,8.57800556 44.1300898,8.55066139 C45.0372811,8.52302778 45.789318,8.67581627 46.3941092,8.97846375 C47.0582544,9.31081302 47.5609253,9.82208762 47.8965974,10.5178042 C48.37204,11.5032098 48.4968647,12.9214627 48.1914068,14.7903946 L48.9846319,14.7726799 C48.9263627,12.8209322 49.1523989,11.3193609 49.623963,10.2582505 C49.9419586,9.54269902 50.3718166,9.00699919 50.8944838,8.63471696 C51.4311317,8.25247667 52.0710124,8.03617544 52.8207689,8.00402582 C53.5755531,7.97166062 54.2286663,8.1350532 54.7862674,8.47214539 C55.3321318,8.80214228 55.7930196,9.30452049 56.1494163,9.99853447 C56.6712801,11.014764 56.9716096,12.4899078 57.0102632,14.436425 C58.1603083,15.0491494 58.4107145,15.6971808 58.3790724,16.3172417 C58.3566589,16.7564587 58.1785497,17.2068671 57.8320787,17.6512569 L57.2152781,17.9704369 L57.5807936,22.995097 L57.111322,24.168776 L54.8876929,26 C53.4326509,25.5324688 53.049285,24.9717033 52.8623126,24.4847112 C52.7282219,24.1354558 52.7210963,23.7879905 52.6626193,23.4300185 L53.9856395,22.1901286 L53.6934956,18.1308666 L52.4938959,18.1912781 L52.2521759,24.7177188 C51.640665,25.4992533 51.0083023,25.7566727 50.4198671,25.7213258 C49.8585639,25.6876088 49.2589811,25.3706197 48.6954174,24.5936097 L48.9330539,18.3236614 L48.0082536,18.3377447 L48.0082536,22.8740378 L47.7142397,23.6678752 L46.0608773,25.8461147 C43.3077712,25.3046319 43.7444292,24.4205912 43.3016648,23.7707432 L44.4712014,22.1388874 L44.4712014,18.4875066 L43.3746061,18.5358858 L42.9863984,25.0383638 C41.7763315,25.5426529 40.6129638,25.265624 39.4469489,24.9232175 L39.8115268,18.6870151 C38.53468,18.0118543 38.3476291,17.3073411 38.4586149,16.6319169 C38.538344,16.1467109 38.8121732,15.6492089 39.2201283,15.1660071 L39.8554326,15.1444713 C39.6256357,13.2284841 39.8107956,11.7569424 40.342297,10.7129786 C40.6993533,10.0116561 41.2086102,9.48116569 41.8647244,9.11628313 Z M52.5104721,14.637428 L53.5342288,14.5898114 C53.5712279,13.5418517 53.5130804,12.7251187 53.3415973,12.1426364 C53.2747644,11.915623 53.1995424,11.732115 52.8368465,11.5803106 C52.7282632,11.6916402 52.6676048,11.8717984 52.6120153,12.0937034 C52.4619169,12.6928747 52.4341249,13.5415697 52.5104721,14.637428 Z M43.4254995,14.9787709 L44.621158,14.9235867 C44.8188257,13.8922547 44.8663796,13.0980861 44.72376,12.5449687 C44.6824858,12.3848963 44.6331947,12.2482442 44.1857585,12.0965841 C44.0242023,12.1029944 43.8829102,12.1374767 43.7731026,12.2274612 C43.6422533,12.3346889 43.5601502,12.50089 43.4962011,12.7036875 C43.3237943,13.2504289 43.3106355,14.0103134 43.4254995,14.9787709 Z" id="path-2"></path>
        <filter x="-2.5%" y="-5.6%" width="105.0%" height="111.4%" filterUnits="objectBoundingBox" id="filter-3">
            <feGaussianBlur stdDeviation="0.5" in="SourceAlpha" result="shadowBlurInner1"></feGaussianBlur>
            <feOffset dx="0" dy="0" in="shadowBlurInner1" result="shadowOffsetInner1"></feOffset>
            <feComposite in="shadowOffsetInner1" in2="SourceAlpha" operator="arithmetic" k2="-1" k3="1" result="shadowInnerInner1"></feComposite>
            <feColorMatrix values="0 0 0 0 0.783498476   0 0 0 0 0.889856742   0 0 0 0 1  0 0 0 0.5 0" type="matrix" in="shadowInnerInner1"></feColorMatrix>
        </filter>
    </defs>
    <g id="3/上册" stroke="none" stroke-width="1" fill="none" fill-rule="evenodd">
        <g id="形状" fill-rule="nonzero">
            <use fill="url(#linearGradient-1)" xlink:href="#path-2"></use>
            <use fill="black" fill-opacity="1" filter="url(#filter-3)" xlink:href="#path-2"></use>
            <path stroke="#DEEBFF" stroke-width="0.5" d="M24.5485652,21.3766164 L24.0385235,10.9526399 C23.9866882,9.89325602 24.7639993,8.97661595 25.8212676,8.85003176 L25.9689753,8.83828335 C27.0896633,8.79120865 28.037316,9.65945261 28.0882487,10.7799719 L28.183387,12.8730148 L31.1086567,12.4133296 C32.2114713,12.2400301 33.2469053,12.9908048 33.4249848,14.0928577 C33.6029482,15.1941923 32.8547046,16.2313685 31.7534533,16.4098472 L28.3834656,16.9560176 L28.586827,21.2537205 L33.7312827,21.0999461 C34.7881113,21.0683561 35.6704489,21.8994762 35.7020389,22.9563048 C35.7032385,22.9964347 35.7031753,23.0365923 35.7018496,23.0767182 C35.6645969,24.2042745 34.7563988,25.1081747 33.6286784,25.1400782 L20.2804128,25.5177044 C19.1665803,25.5492151 18.231041,24.6863093 18.1726271,23.5735633 C18.1156569,22.4883183 18.9492383,21.56237 20.0344833,21.5053998 L20.0404636,21.5051576 L24.5485652,21.3766164 Z M48.4836437,14.5338059 L48.7287369,14.5283323 C48.6961133,12.6896444 48.9206607,11.2252189 49.3955069,10.1567231 C49.7259056,9.41326233 50.1798875,8.83677144 50.7494456,8.43109001 C51.3330282,8.01541936 52.021892,7.78805199 52.8100588,7.75425534 C53.6025321,7.72027403 54.3066964,7.8900924 54.9156048,8.25820186 C55.512665,8.61914865 56.0010463,9.16234605 56.3718066,9.88433049 C56.9084518,10.929344 57.2064226,12.4047179 57.2568394,14.2866668 C58.2684146,14.8599784 58.6699852,15.5218863 58.6287476,16.3299828 C58.603223,16.8301644 58.4007257,17.328495 58.0292372,17.8049726 L57.9469757,17.8732899 L57.4765792,18.1167092 L57.8301347,22.9769588 L57.8129128,23.0879447 L57.3434412,24.2616237 L57.2702488,24.3617586 L54.9412151,26.2797864 L54.8112144,26.2380148 C53.5007704,25.8169456 52.9107775,25.3084414 52.6289229,24.5743172 C52.6073209,24.5180522 52.5881654,24.4606839 52.5711108,24.4016976 C52.5512359,24.3329565 52.5354704,24.2696732 52.5214883,24.2009129 L52.5020046,24.7269717 L52.4490674,24.8717764 C51.8326071,25.6596364 51.1381951,26.0149259 50.4048768,25.970876 C49.7137366,25.9293598 49.0611805,25.5237066 48.4930434,24.7403911 L48.4455967,24.5841413 L48.6732481,18.5776468 L48.2574247,18.5839792 L48.2426908,22.9608664 L47.9133727,23.8190243 L46.1656954,26.1215199 L46.0126314,26.0914152 C44.5141861,25.7967 43.7956273,25.3870387 43.4581436,24.7577481 C43.3900664,24.6308076 43.3558583,24.5450713 43.2793371,24.3265971 L43.2266515,25.2090805 L43.0825676,25.2691267 C41.9851522,25.7264688 41.0213057,25.6460921 39.3765094,25.1630889 L39.1857732,25.1070782 L39.5527127,18.8304817 C38.4409732,18.2027557 38.065309,17.4836281 38.2119232,16.5913805 C38.2972376,16.0721845 38.5789953,15.5378623 39.0291049,15.0047308 L39.2116586,14.9161506 L39.5771807,14.90376 C39.3939408,13.1064079 39.578174,11.6628312 40.1195087,10.5995529 C40.4974706,9.85716804 41.0405322,9.28857928 41.7432184,8.8977968 C42.4051454,8.52968158 43.2006537,8.32885664 44.1224782,8.30077729 C45.0510611,8.27249207 45.848897,8.42607548 46.505987,8.75489422 C47.22255,9.11347419 47.763549,9.66673736 48.1217596,10.4091671 C48.6072126,11.4153207 48.7313308,12.8004776 48.4836437,14.5338059 Z M52.744399,14.3762774 L53.2910323,14.3508526 C53.3116834,13.4211562 53.2491898,12.7139714 53.1017743,12.2132404 C53.0572777,12.0620976 53.0172946,11.9785544 52.9277526,11.9108781 C52.9038726,11.9732096 52.8799336,12.0530137 52.8545218,12.1544537 C52.7253674,12.6700195 52.689048,13.4049563 52.744399,14.3762774 Z M43.6484435,14.718215 L44.4114144,14.683001 C44.5773598,13.7503311 44.600657,13.0688222 44.4816779,12.6073888 C44.4472638,12.4739216 44.409637,12.4364393 44.1956705,12.3463875 C44.068962,12.3514152 43.986071,12.376159 43.9315617,12.420828 C43.8552456,12.483367 43.7922811,12.5960401 43.7346278,12.7788718 C43.5919577,13.2313116 43.5636515,13.8708571 43.6484435,14.718215 Z"></path>
        </g>
    </g>
</svg>