<?xml version="1.0" encoding="UTF-8"?>
<svg width="80px" height="32px" viewBox="0 0 80 32" version="1.1" xmlns="http://www.w3.org/2000/svg" xmlns:xlink="http://www.w3.org/1999/xlink">
    <!-- Generator: Sketch 61.2 (89653) - https://sketch.com -->
    <title>3/下册</title>
    <desc>Created with Sketch.</desc>
    <g id="3/下册" stroke="none" stroke-width="1" fill="none" fill-rule="evenodd">
        <path d="M26.3982222,23.6969158 L26.5333333,23.6945455 C27.0773333,23.6465455 27.4573333,23.4105455 27.6733333,22.9865455 C27.8893333,22.5625455 27.9813333,21.8465455 27.9493333,20.8385455 C27.9333333,19.7985455 27.9173333,18.8505455 27.9013333,17.9945455 C27.8853333,17.1385455 27.8693333,16.3665455 27.8533333,15.6785455 C27.8533333,15.2145455 28.1173333,15.1745455 28.6453333,15.5585455 C28.8693333,15.7185455 29.1013333,15.8745455 29.3413333,16.0265455 C29.5813333,16.1785455 29.8493333,16.3425455 30.1453333,16.5185455 C30.4413333,16.6945455 30.7733333,16.8905455 31.1413333,17.1065455 C31.5093333,17.3225455 31.9333333,17.5665455 32.4133333,17.8385455 C32.9253333,18.1425455 33.2973333,18.2945455 33.5293333,18.2945455 C33.7613333,18.2945455 33.9333333,18.2225455 34.0453333,18.0785455 C34.1733333,17.8865455 34.2213333,17.6945455 34.1893333,17.5025455 C34.1573333,17.3105455 34.0053333,17.1345455 33.7333333,16.9745455 C33.3813333,16.7665455 32.9773333,16.5105455 32.5213333,16.2065455 C32.0653333,15.9025455 31.5813333,15.5745455 31.0693333,15.2225455 C30.5573333,14.8705455 30.0373333,14.4985455 29.5093333,14.1065455 C28.9813333,13.7145455 28.4773333,13.3185455 27.9973333,12.9185455 C27.8693333,12.8225455 27.8053333,12.7185455 27.8053333,12.6065455 L27.8053333,12.6065455 L27.8053333,11.7905455 C27.8053333,11.5985455 27.8853333,11.5185455 28.0453333,11.5505455 C28.3013333,11.5825455 28.6253333,11.6025455 29.0173333,11.6105455 C29.4093333,11.6185455 29.7093333,11.6385455 29.9173333,11.6705455 C30.2213333,11.7025455 30.5173333,11.7385455 30.8053333,11.7785455 C31.0933333,11.8185455 31.4253333,11.8745455 31.8013333,11.9465455 C32.1773333,12.0185455 32.6253333,12.1185455 33.1453333,12.2465455 C33.6653333,12.3745455 34.3253333,12.5425455 35.1253333,12.7505455 C35.4453333,12.8305455 35.7893333,12.8505455 36.1573333,12.8105455 C36.5253333,12.7705455 36.8773333,12.6625455 37.2133333,12.4865455 C37.5493333,12.3105455 37.8493333,12.0745455 38.1133333,11.7785455 C38.3773333,11.4825455 38.5733333,11.1265455 38.7013333,10.7105455 C38.7493333,10.5185455 38.7533333,10.3905455 38.7133333,10.3265455 C38.6733333,10.2625455 38.5653333,10.2305455 38.3893333,10.2305455 C37.8293333,10.2465455 37.3013333,10.2585455 36.8053333,10.2665455 C36.3093333,10.2745455 35.7093333,10.2705455 35.0053333,10.2545455 C33.0213333,10.2225455 31.3013333,10.1945455 29.8453333,10.1705455 C28.3893333,10.1465455 27.1413333,10.1345455 26.1013333,10.1345455 L26.1013333,10.1345455 L23.4973333,10.1345455 C22.8013333,10.1345455 22.2133333,10.1425455 21.7333333,10.1585455 C21.2533333,10.1745455 20.8533333,10.1945455 20.5333333,10.2185455 C20.2133333,10.2425455 19.9173333,10.2705455 19.6453333,10.3025455 C19.5333333,10.3185455 19.3973333,10.2985455 19.2373333,10.2425455 C19.0773333,10.1865455 18.9173333,10.1105455 18.7573333,10.0145455 C18.6293333,9.93454545 18.4533333,9.91454545 18.2293333,9.95454545 C18.0053333,9.99454545 17.7693333,10.0825455 17.5213333,10.2185455 C17.2733333,10.3545455 17.0373333,10.5305455 16.8133333,10.7465455 C16.5893333,10.9625455 16.4053333,11.2145455 16.2613333,11.5025455 C16.1333333,11.7425455 16.0533333,11.9625455 16.0213333,12.1625455 C15.9893333,12.3625455 15.9933333,12.5305455 16.0333333,12.6665455 C16.0733333,12.8025455 16.1373333,12.8985455 16.2253333,12.9545455 C16.3133333,13.0105455 16.4293333,13.0065455 16.5733333,12.9425455 C16.8133333,12.8465455 17.0213333,12.7625455 17.1973333,12.6905455 C17.3733333,12.6185455 17.5373333,12.5545455 17.6893333,12.4985455 C17.8413333,12.4425455 18.0013333,12.3905455 18.1693333,12.3425455 C18.3373333,12.2945455 18.5333333,12.2465455 18.7573333,12.1985455 C19.6213333,11.9745455 20.6253333,11.8105455 21.7693333,11.7065455 C22.9133333,11.6025455 24.0613333,11.5345455 25.2133333,11.5025455 C25.3893333,11.5025455 25.4773333,11.5745455 25.4773333,11.7185455 C25.4933333,11.9905455 25.5013333,12.3785455 25.5013333,12.8825455 L25.5013333,12.8825455 L25.5013333,14.5865455 C25.5013333,15.2185455 25.4973333,15.8785455 25.4893333,16.5665455 C25.4813333,17.2545455 25.4693333,17.9225455 25.4533333,18.5705455 C25.4373333,19.2185455 25.4173333,19.8105455 25.3933333,20.3465455 C25.3693333,20.8825455 25.3413333,21.3105455 25.3093333,21.6305455 C25.2613333,22.2065455 25.3493333,22.7025455 25.5733333,23.1185455 C25.7973333,23.5345455 26.1173333,23.7265455 26.5333333,23.6945455 L26.3982222,23.6969158 Z M56.6533333,23.6225455 C56.7973333,23.6225455 56.9973333,23.5905455 57.2533333,23.5265455 C57.5893333,23.4465455 57.8533333,23.3665455 58.0453333,23.2865455 C58.2373333,23.2065455 58.3773333,23.0945455 58.4653333,22.9505455 C58.5533333,22.8065455 58.5973333,22.6185455 58.5973333,22.3865455 C58.5973333,22.1545455 58.5813333,21.8465455 58.5493333,21.4625455 C58.4853333,20.8385455 58.4293333,20.2105455 58.3813333,19.5785455 C58.3333333,18.9465455 58.2933333,18.1825455 58.2613333,17.2865455 C58.2453333,17.1105455 58.2653333,17.0025455 58.3213333,16.9625455 C58.3773333,16.9225455 58.4773333,16.9185455 58.6213333,16.9505455 C58.8933333,17.0305455 59.1333333,17.1065455 59.3413333,17.1785455 C59.5493333,17.2505455 59.7093333,17.3185455 59.8213333,17.3825455 C60.1733333,17.5905455 60.5453333,17.6865455 60.9373333,17.6705455 C61.3293333,17.6545455 61.6373333,17.5745455 61.8613333,17.4305455 C62.0853333,17.2865455 62.3133333,17.0465455 62.5453333,16.7105455 C62.7773333,16.3745455 62.9653333,16.0225455 63.1093333,15.6545455 C63.2213333,15.3825455 63.2373333,15.2105455 63.1573333,15.1385455 C63.0773333,15.0665455 62.9013333,15.0305455 62.6293333,15.0305455 C62.4693333,15.0305455 62.0213333,15.0265455 61.2853333,15.0185455 C60.5493333,15.0105455 59.6053333,14.9905455 58.4533333,14.9585455 C58.3413333,14.9585455 58.2653333,14.9345455 58.2253333,14.8865455 C58.1853333,14.8385455 58.1653333,14.7345455 58.1653333,14.5745455 C58.1653333,13.7585455 58.1733333,13.0705455 58.1893333,12.5105455 C58.2053333,11.9505455 58.2373333,11.5825455 58.2853333,11.4065455 C58.3973333,10.9265455 58.4213333,10.5665455 58.3573333,10.3265455 C58.2933333,10.0865455 58.1253333,9.87854545 57.8533333,9.70254545 C57.1493333,9.25454545 56.5413333,9.29454545 56.0293333,9.82254545 C55.9813333,9.87054545 55.9013333,9.90654545 55.7893333,9.93054545 C55.6773333,9.95454545 55.4853333,9.96654545 55.2133333,9.96654545 L55.2133333,9.96654545 L54.9133333,9.96654545 C54.8093333,9.96654545 54.6773333,9.95054545 54.5173333,9.91854545 C54.3253333,9.90254545 54.1813333,9.82254545 54.0853333,9.67854545 C53.8613333,9.39054545 53.5173333,9.29454545 53.0533333,9.39054545 C52.7493333,9.45454545 52.5573333,9.66654545 52.4773333,10.0265455 C52.3973333,10.3865455 52.4213333,10.8465455 52.5493333,11.4065455 C52.6453333,11.8705455 52.7213333,12.3865455 52.7773333,12.9545455 C52.8333333,13.5225455 52.8533333,14.0545455 52.8373333,14.5505455 C52.8373333,14.7585455 52.7173333,14.8465455 52.4773333,14.8145455 C52.2533333,14.7825455 52.0373333,14.7665455 51.8293333,14.7665455 C51.6213333,14.7665455 51.4133333,14.7745455 51.2053333,14.7905455 C50.9653333,14.7905455 50.8453333,14.6465455 50.8453333,14.3585455 C50.8933333,13.1905455 50.9653333,12.4225455 51.0613333,12.0545455 C51.2373333,11.3825455 51.2893333,10.8585455 51.2173333,10.4825455 C51.1453333,10.1065455 50.9413333,9.80654545 50.6053333,9.58254545 C50.3813333,9.43854545 50.1373333,9.37054545 49.8733333,9.37854545 C49.6093333,9.38654545 49.3653333,9.45454545 49.1413333,9.58254545 C48.9653333,9.69454545 48.7933333,9.76254545 48.6253333,9.78654545 C48.4573333,9.81054545 48.2293333,9.80654545 47.9413333,9.77454545 C47.8133333,9.75854545 47.6453333,9.75054545 47.4373333,9.75054545 C47.2293333,9.75054545 47.1013333,9.75854545 47.0533333,9.77454545 C47.0053333,9.79054545 46.9493333,9.77854545 46.8853333,9.73854545 C46.8213333,9.69854545 46.7493333,9.61454545 46.6693333,9.48654545 C46.5413333,9.31054545 46.3653333,9.17454545 46.1413333,9.07854545 C45.9173333,8.98254545 45.6453333,8.97454545 45.3253333,9.05454545 C45.0373333,9.13454545 44.8373333,9.35454545 44.7253333,9.71454545 C44.6133333,10.0745455 44.6373333,10.5425455 44.7973333,11.1185455 C44.9253333,11.5345455 45.0253333,12.0385455 45.0973333,12.6305455 C45.1693333,13.2225455 45.2133333,13.8305455 45.2293333,14.4545455 C45.2293333,14.5985455 45.1933333,14.6985455 45.1213333,14.7545455 C45.0493333,14.8105455 44.8773333,14.8625455 44.6053333,14.9105455 C44.3173333,14.9585455 44.0333333,14.9945455 43.7533333,15.0185455 C43.4733333,15.0425455 43.2213333,15.0545455 42.9973333,15.0545455 C42.7733333,15.0545455 42.5853333,15.0425455 42.4333333,15.0185455 C42.2813333,14.9945455 42.1813333,14.9665455 42.1333333,14.9345455 C41.9573333,14.7905455 41.7813333,14.7225455 41.6053333,14.7305455 C41.4293333,14.7385455 41.1813333,14.8385455 40.8613333,15.0305455 C40.5413333,15.2225455 40.2813333,15.3945455 40.0813333,15.5465455 C39.8813333,15.6985455 39.7253333,15.8385455 39.6133333,15.9665455 C39.5013333,16.0945455 39.4293333,16.2145455 39.3973333,16.3265455 C39.3653333,16.4385455 39.3573333,16.5425455 39.3733333,16.6385455 C39.4373333,17.1345455 39.6173333,17.4265455 39.9133333,17.5145455 C40.2093333,17.6025455 40.7573333,17.4785455 41.5573333,17.1425455 C41.8133333,17.0305455 42.0533333,16.9345455 42.2773333,16.8545455 C42.5013333,16.7745455 42.7333333,16.7065455 42.9733333,16.6505455 C43.2133333,16.5945455 43.4693333,16.5505455 43.7413333,16.5185455 C44.0133333,16.4865455 44.3173333,16.4545455 44.6533333,16.4225455 C44.8453333,16.4065455 44.9773333,16.4265455 45.0493333,16.4825455 C45.1213333,16.5385455 45.1493333,16.6385455 45.1333333,16.7825455 C45.1013333,17.0545455 45.0533333,17.3105455 44.9893333,17.5505455 C44.8133333,18.1745455 44.6293333,18.6865455 44.4373333,19.0865455 C44.2453333,19.4865455 44.0053333,19.8225455 43.7173333,20.0945455 C43.4293333,20.3665455 43.0693333,20.6105455 42.6373333,20.8265455 C42.2053333,21.0425455 41.6693333,21.2705455 41.0293333,21.5105455 C40.8533333,21.5745455 40.7533333,21.6465455 40.7293333,21.7265455 C40.7053333,21.8065455 40.7653333,21.9585455 40.9093333,22.1825455 C41.4213333,22.9985455 42.1133333,23.3305455 42.9853333,23.1785455 C43.8573333,23.0265455 44.7333333,22.4225455 45.6133333,21.3665455 C45.9653333,20.9505455 46.2693333,20.3465455 46.5253333,19.5545455 C46.7813333,18.7625455 46.9493333,17.8385455 47.0293333,16.7825455 C47.0453333,16.5905455 47.0853333,16.4665455 47.1493333,16.4105455 C47.2133333,16.3545455 47.3013333,16.3265455 47.4133333,16.3265455 C47.5413333,16.3265455 47.7293333,16.3225455 47.9773333,16.3145455 C48.2253333,16.3065455 48.4133333,16.3025455 48.5413333,16.3025455 C48.7813333,16.3025455 48.9013333,16.3905455 48.9013333,16.5665455 C48.8853333,17.4305455 48.8733333,18.3265455 48.8653333,19.2545455 C48.8573333,20.1825455 48.8373333,21.2305455 48.8053333,22.3985455 C48.7893333,22.8945455 48.8333333,23.2065455 48.9373333,23.3345455 C49.0413333,23.4625455 49.3013333,23.4865455 49.7173333,23.4065455 C50.2133333,23.2945455 50.5293333,23.1745455 50.6653333,23.0465455 C50.8013333,22.9185455 50.8773333,22.6945455 50.8933333,22.3745455 C50.8933333,22.1985455 50.9893333,22.1505455 51.1813333,22.2305455 C51.3893333,22.3105455 51.5933333,22.3385455 51.7933333,22.3145455 C51.9933333,22.2905455 52.1973333,22.1985455 52.4053333,22.0385455 C52.6133333,21.8785455 52.8333333,21.6345455 53.0653333,21.3065455 C53.2973333,20.9785455 53.5413333,20.5585455 53.7973333,20.0465455 C53.9253333,19.8225455 54.0293333,19.4625455 54.1093333,18.9665455 C54.1893333,18.4705455 54.2533333,17.7265455 54.3013333,16.7345455 C54.3173333,16.4945455 54.4693333,16.3745455 54.7573333,16.3745455 C54.9173333,16.3745455 55.0853333,16.3825455 55.2613333,16.3985455 C55.4373333,16.4145455 55.6133333,16.4385455 55.7893333,16.4705455 C55.9333333,16.5025455 56.0253333,16.5385455 56.0653333,16.5785455 C56.1053333,16.6185455 56.1253333,16.7025455 56.1253333,16.8305455 L56.1253333,16.8305455 L56.1253333,22.2785455 C56.1253333,22.5985455 56.1373333,22.8585455 56.1613333,23.0585455 C56.1853333,23.2585455 56.2373333,23.4025455 56.3173333,23.4905455 C56.3973333,23.5785455 56.5093333,23.6225455 56.6533333,23.6225455 Z M48.6133333,14.7425455 L47.9653333,14.7425455 C47.5653333,14.7425455 47.3053333,14.7225455 47.1853333,14.6825455 C47.0653333,14.6425455 46.9973333,14.5345455 46.9813333,14.3585455 C46.9493333,13.9265455 46.9213333,13.4465455 46.8973333,12.9185455 C46.8733333,12.3905455 46.8533333,11.9265455 46.8373333,11.5265455 C46.8373333,11.2705455 46.9253333,11.1345455 47.1013333,11.1185455 C47.2133333,11.1025455 47.4253333,11.0865455 47.7373333,11.0705455 C48.0493333,11.0545455 48.2853333,11.0465455 48.4453333,11.0465455 C48.6693333,11.0465455 48.8093333,11.0945455 48.8653333,11.1905455 C48.9213333,11.2865455 48.9493333,11.5585455 48.9493333,12.0065455 L48.9493333,12.0065455 L48.9493333,13.1585455 C48.9493333,13.5745455 48.9413333,13.9425455 48.9253333,14.2625455 C48.9253333,14.4705455 48.9053333,14.6025455 48.8653333,14.6585455 C48.8253333,14.7145455 48.7413333,14.7425455 48.6133333,14.7425455 L48.6133333,14.7425455 Z M55.7653333,14.8865455 L55.2133333,14.8865455 C55.0213333,14.8865455 54.8453333,14.8705455 54.6853333,14.8385455 C54.4933333,14.8225455 54.3973333,14.7185455 54.3973333,14.5265455 C54.4293333,13.4225455 54.4053333,12.4465455 54.3253333,11.5985455 C54.3253333,11.3905455 54.4133333,11.2705455 54.5893333,11.2385455 C54.7333333,11.2225455 54.8893333,11.2145455 55.0573333,11.2145455 L55.0573333,11.2145455 L55.4773333,11.2145455 C55.7653333,11.2145455 55.9413333,11.2665455 56.0053333,11.3705455 C56.0693333,11.4745455 56.1013333,11.7505455 56.1013333,12.1985455 C56.1013333,12.7905455 56.0973333,13.2625455 56.0893333,13.6145455 C56.0813333,13.9665455 56.0653333,14.2385455 56.0413333,14.4305455 C56.0173333,14.6225455 55.9813333,14.7465455 55.9333333,14.8025455 C55.8853333,14.8585455 55.8293333,14.8865455 55.7653333,14.8865455 L55.7653333,14.8865455 Z M51.0613333,20.1425455 C50.9173333,20.2385455 50.8453333,20.2145455 50.8453333,20.0705455 C50.8133333,19.4465455 50.7973333,18.8545455 50.7973333,18.2945455 L50.7973333,18.2945455 L50.7973333,16.7105455 C50.7973333,16.4545455 50.9413333,16.3265455 51.2293333,16.3265455 L51.2293333,16.3265455 L52.3093333,16.3265455 C52.5173333,16.3265455 52.6453333,16.3705455 52.6933333,16.4585455 C52.7413333,16.5465455 52.7093333,16.7665455 52.5973333,17.1185455 C52.3253333,17.9825455 52.0733333,18.6465455 51.8413333,19.1105455 C51.6093333,19.5745455 51.3493333,19.9185455 51.0613333,20.1425455 Z" id="下册" fill="#2680D4" fill-rule="nonzero"></path>
    </g>
</svg>