<?xml version="1.0" encoding="UTF-8"?>
<svg width="80px" height="32px" viewBox="0 0 80 32" version="1.1" xmlns="http://www.w3.org/2000/svg" xmlns:xlink="http://www.w3.org/1999/xlink">
    <!-- Generator: Sketch 61.2 (89653) - https://sketch.com -->
    <title>下册</title>
    <desc>Created with Sketch.</desc>
    <defs>
        <linearGradient x1="0%" y1="40.2297317%" x2="100%" y2="59.7702683%" id="linearGradient-1">
            <stop stop-color="#49A4FB" offset="0%"></stop>
            <stop stop-color="#236BF4" offset="100%"></stop>
        </linearGradient>
    </defs>
    <g id="下册" stroke="none" stroke-width="1" fill="none" fill-rule="evenodd">
        <path d="M34.2083177,11.1058806 L27.8301286,11.2939773 L27.0515521,24.5497412 C26.9815086,25.7422774 26.0068907,26.6808308 24.812562,26.7058805 C23.7288389,26.7286103 22.8318816,25.8685054 22.8091518,24.7847823 L22.8089862,24.7113141 L22.8089862,24.7113141 L23.5244632,11.4241876 L17.803052,11.588596 C16.610064,11.6228773 15.6001609,10.7147964 15.5079384,9.52488441 C15.4252844,8.45843204 16.1828025,7.52076468 17.2235441,7.36241489 L17.4238644,7.34192236 L17.4238644,7.34192236 L34.0922213,6.87149007 C35.2090655,6.84001039 36.1480505,7.68024867 36.256392,8.77521095 L36.2660011,8.92767094 L36.2660011,8.92767094 C36.2980577,10.0969128 35.3774906,11.071401 34.2083177,11.1058806 Z M63.0946239,17.9970463 L63.5344347,24.0430281 L62.9695374,25.4552713 L60.2940059,27.6586502 C58.5648778,27.1035662 58.0953553,26.4373911 57.8658275,25.8583918 C57.6981036,25.4352968 57.6871513,25.0144627 57.6208341,24.5804122 L59.2087404,23.0774632 L58.8569973,18.1900853 L57.4135648,18.2627761 L57.1227123,26.1157933 C56.3869045,27.0561839 55.6260066,27.3659268 54.9179649,27.3233953 C54.2425703,27.2828249 53.5211151,26.901404 52.8430004,25.9664575 L53.1289394,18.4220679 L52.0161625,18.4390138 L52.0161625,23.8973622 L51.6623868,24.8525565 L49.6729588,27.4735489 C46.3602513,26.8220034 46.8856652,25.7582709 46.3529037,24.9763336 L47.7601625,23.0127838 L47.7601625,18.6192166 L46.4406712,18.6774294 L45.9735557,26.5016132 C44.5175283,27.1084049 43.1176923,26.7750667 41.7146711,26.363062 L42.1533539,18.8592776 C40.6169728,18.0468823 40.3919016,17.1991685 40.5254466,16.3864563 C40.6213816,15.8026264 40.9508697,15.2040012 41.4417466,14.6225829 L42.206184,14.5966698 C41.9296782,12.2912354 42.152474,10.5205855 42.7920093,9.26442364 C43.2216415,8.42054898 43.834411,7.78223017 44.6238882,7.34318091 C45.3638195,6.93168543 46.2695609,6.69549204 47.3497159,6.66258984 C48.4413046,6.62933937 49.346202,6.81318394 50.073924,7.1773481 C50.8730646,7.57725129 51.4779094,8.19244851 51.8818109,9.02957772 C52.4538927,10.2152787 52.6040895,11.9218083 52.2365438,14.1706227 L53.1910012,14.1493073 C53.1208881,11.8008438 53.3928688,9.99406039 53.960284,8.71726664 C54.3429159,7.85627087 54.8601476,7.2116837 55.4890531,6.7637307 C56.1347811,6.30379554 56.9047251,6.04352853 57.8068786,6.00484412 C58.7150815,5.96590031 59.5009477,6.16250436 60.1718879,6.56811453 C60.8287057,6.96518721 61.3832745,7.56967974 61.8121129,8.40476028 C62.4400517,9.6275505 62.8014267,11.4025347 62.8479372,13.7447046 C64.2317426,14.4819725 64.5330468,15.261724 64.4949731,16.0078196 C64.4680038,16.5363127 64.2536917,17.078272 63.8367964,17.6129892 L63.0946239,17.9970463 Z M34.3208354,20.1867328 C33.452702,21.0001651 32.0962096,20.979646 31.2530767,20.1403282 L26.6185725,15.5267946 L28.1051514,13.9642056 C28.8264227,13.2060551 30.0005713,13.1378294 30.8026133,13.7800939 L30.9524781,13.9127966 L30.9524781,13.9127966 L34.3522984,17.2374109 C35.1584145,18.0256953 35.17287,19.3182123 34.3845856,20.1243285 L34.3208354,20.1867328 L34.3208354,20.1867328 Z M48.0640566,11.4687875 L48.0331892,11.3662448 C47.9769886,11.2157893 47.8571951,11.0785707 47.4167,10.9292633 C47.2223055,10.9369767 47.0522941,10.9784679 46.9201668,11.0867428 C46.7627208,11.2157657 46.6639294,11.4157493 46.5869818,11.6597677 C46.3795313,12.3176408 46.3636978,13.2319809 46.5019093,14.3972888 L47.9405995,14.3308877 C48.1784456,13.0899253 48.2356653,12.1343325 48.0640566,11.4687875 Z M58.4335714,10.9846763 C58.353154,10.7115198 58.2626422,10.4907117 58.1212126,10.3491138 C58.0701531,10.2979936 58.008079,10.2722646 57.8262241,10.3080512 C57.6955699,10.4420099 57.622582,10.6587873 57.5556933,10.9257971 C57.3750856,11.646757 57.3416445,12.6679594 57.4335102,13.9865639 L58.6653575,13.9292686 C58.7098772,12.6682987 58.6399106,11.685555 58.4335714,10.9846763 Z" id="形状" fill="url(#linearGradient-1)" fill-rule="nonzero"></path>
    </g>
</svg>