<?xml version="1.0" encoding="UTF-8"?>
<svg width="80px" height="32px" viewBox="0 0 80 32" version="1.1" xmlns="http://www.w3.org/2000/svg" xmlns:xlink="http://www.w3.org/1999/xlink">
    <!-- Generator: Sketch 61.2 (89653) - https://sketch.com -->
    <title>3/下册</title>
    <desc>Created with Sketch.</desc>
    <defs>
        <linearGradient x1="0%" y1="40.2297317%" x2="100%" y2="59.7702683%" id="linearGradient-1">
            <stop stop-color="#49A4FB" offset="0%"></stop>
            <stop stop-color="#4883F4" offset="100%"></stop>
        </linearGradient>
        <path d="M33.0483466,12.2433785 L27.7475822,12.3997013 L27.1005254,23.4162581 C27.0423138,24.4073472 26.2323316,25.1873571 25.2397528,25.2081753 C24.3390958,25.2270655 23.5936554,24.5122523 23.5747652,23.6115953 L23.5746276,23.5505376 L24.1692439,12.5079161 L19.4143122,12.644552 C18.4228477,12.6730424 17.5835407,11.9183576 17.5068967,10.9294494 C17.438205,10.0431456 18.0677606,9.26387213 18.9326967,9.1322713 L19.0991783,9.11524043 L32.9518616,8.72427511 C33.8800449,8.69811308 34.6604134,9.39641555 34.7504535,10.3064132 L34.7584394,10.4331192 C34.7850809,11.4048488 34.020019,12.2147233 33.0483466,12.2433785 Z M57.0550832,17.9704659 L57.4205998,22.9951407 L56.9511268,24.1688231 L54.7275548,26 C53.2905167,25.5386826 52.9003075,24.9850399 52.7095523,24.5038471 C52.5701609,24.1522228 52.5610587,23.8024773 52.505944,23.441748 L53.8256159,22.1926821 L53.5332904,18.1308961 L52.3336873,18.1913078 L52.0919665,24.7177675 C51.4804538,25.4993043 50.8480893,25.7567244 50.2596524,25.7213774 C49.6983476,25.6876603 49.098763,25.3706703 48.5351977,24.593658 L48.7728349,18.3236915 L47.8480319,18.3377748 L47.8480319,22.8740811 L47.5540172,23.6679208 L45.9006499,25.8461666 C43.1475358,25.3046823 43.5841951,24.420639 43.1414294,23.7707891 L44.3109693,22.1389286 L44.3109693,18.4875371 L43.2143709,18.5359165 L42.8261621,25.0384134 C41.6160916,25.5427039 40.4527205,25.2656743 39.2867022,24.9232668 L39.6512813,18.6870463 C38.3744307,18.0118835 38.1873793,17.3073682 38.2983654,16.631942 C38.3780948,16.1467346 38.6519247,15.6492311 39.059881,15.1660279 L39.6951872,15.1444921 C39.4653896,13.2284993 39.65055,11.7569533 40.1820529,10.7129865 C40.5391103,10.0116619 41.0483687,9.48117001 41.7044848,9.11628638 C42.3194245,8.77430207 43.0721651,8.57800724 43.9698568,8.55066299 C44.8770507,8.5230293 45.6290899,8.67581824 46.2338827,8.9784666 C46.8980299,9.31081683 47.4007023,9.82209292 47.7363754,10.5178115 C48.2118193,11.50322 48.3366444,12.921477 48.0311857,14.7904143 L48.824413,14.7726996 C48.7661436,12.8209462 48.9921805,11.3193706 49.463746,10.258257 C49.7817425,9.54270351 50.2116017,9.00700212 50.7342705,8.6347188 C51.2709199,8.2524774 51.9108025,8.03617555 52.6605612,8.00402584 C53.4153476,7.97166054 54.0684627,8.13505359 54.6260654,8.47214676 C55.1719314,8.80214462 55.6328206,9.30452429 55.9892183,9.99854029 C56.5110836,11.0147728 56.8114139,12.4899209 56.8500677,14.4364437 C58.0001162,15.0491699 58.2505231,15.6972032 58.2188809,16.3172659 C58.1964674,16.7564842 58.0183576,17.2068939 57.6718856,17.651285 L57.0550832,17.9704659 Z M30.5923146,19.7516976 C29.062579,17.6399653 28.1984741,16.3893995 28,16 C27.8015259,15.6106005 27.793575,15.1502225 27.9761472,14.6188659 C28.575579,13.9887846 29.5513866,13.9320838 30.217945,14.4658549 L30.3424941,14.576141 L33.1680056,17.3391506 C33.83795,17.9942754 33.8499636,19.0684562 33.1948388,19.7384006 L33.1418575,19.7902634 C32.4203721,20.466288 31.2930228,20.4492351 30.5923146,19.7516976 Z M44.5635287,12.5449819 L44.5378755,12.4597612 C44.4911685,12.3347211 44.3916109,12.2206819 44.0255257,12.096596 C43.863969,12.1030064 43.7226765,12.1374887 43.6128685,12.2274735 C43.4820188,12.3347015 43.3999156,12.5009032 43.3359662,12.7037012 C43.163559,13.2504442 43.1504001,14.0103309 43.2652644,14.9787912 L44.4609264,14.9236068 C44.6585947,13.8922719 44.7061487,13.098101 44.5635287,12.5449819 Z M53.1813911,12.1426484 C53.114558,11.9156344 53.0393358,11.7321259 52.921797,11.6144473 C52.8793626,11.5719624 52.8277742,11.5505796 52.6766388,11.5803211 C52.5680552,11.691651 52.5073966,11.8718097 52.451807,12.0937153 C52.3017082,12.6928883 52.273916,13.5415858 52.3502635,14.6374473 L53.3740231,14.5898306 C53.4110224,13.5418678 53.3528747,12.7251324 53.1813911,12.1426484 Z" id="path-2"></path>
        <filter x="-2.5%" y="-5.6%" width="104.9%" height="111.4%" filterUnits="objectBoundingBox" id="filter-3">
            <feGaussianBlur stdDeviation="0.5" in="SourceAlpha" result="shadowBlurInner1"></feGaussianBlur>
            <feOffset dx="0" dy="0" in="shadowBlurInner1" result="shadowOffsetInner1"></feOffset>
            <feComposite in="shadowOffsetInner1" in2="SourceAlpha" operator="arithmetic" k2="-1" k3="1" result="shadowInnerInner1"></feComposite>
            <feColorMatrix values="0 0 0 0 0.783498476   0 0 0 0 0.889856742   0 0 0 0 1  0 0 0 0.5 0" type="matrix" in="shadowInnerInner1"></feColorMatrix>
        </filter>
    </defs>
    <g id="3/下册" stroke="none" stroke-width="1" fill="none" fill-rule="evenodd">
        <g id="形状" fill-rule="nonzero">
            <use fill="url(#linearGradient-1)" xlink:href="#path-2"></use>
            <use fill="black" fill-opacity="1" filter="url(#filter-3)" xlink:href="#path-2"></use>
            <path stroke="#DEEBFF" stroke-width="0.5" d="M27.983732,12.6428458 L27.3500953,23.4309166 C27.2842403,24.5521399 26.3679038,25.4345686 25.2449951,25.4581203 C24.2062972,25.4799058 23.3466057,24.6555354 23.3247658,23.6121586 L23.3249893,23.5370952 L23.9050054,12.7656123 L19.4214932,12.8944489 C18.2967358,12.9267695 17.3445923,12.0706246 17.2576442,10.9487674 C17.1791663,9.93619605 17.8964489,9.03706018 18.9072548,8.88356925 L19.0921253,8.86533994 L32.9448179,8.47437436 C33.9998875,8.44463588 34.8958498,9.23688873 34.9999584,10.2906876 L35.0083455,10.4262676 C35.0387655,11.5358144 34.1651975,12.4605506 33.0557161,12.4932699 L27.983732,12.6428458 Z M57.3163843,18.1167383 L57.6699409,22.9770025 L57.6527189,23.0879883 L57.183246,24.2616708 L57.1100536,24.3618057 L54.7811109,26.2797584 L54.6511408,26.2380355 C53.3554506,25.8220936 52.7634536,25.3182039 52.4771475,24.5959774 C52.4545861,24.5390648 52.4345642,24.4810596 52.4167443,24.421482 C52.3942347,24.3462254 52.3766708,24.2771568 52.3612622,24.201412 L52.3417953,24.7270204 L52.2888581,24.8718251 C51.6723961,25.6596872 50.9779823,26.0149776 50.2446621,25.9709276 C49.5535201,25.9294113 48.9009623,25.523757 48.3328237,24.7404394 L48.285377,24.5841896 L48.5130291,18.5776769 L48.097203,18.5840093 L48.0824691,22.9609097 L47.7531501,23.81907 L46.005468,26.1215719 L45.852404,26.0914671 C44.3539546,25.7967511 43.6353939,25.3870887 43.2979093,24.7577965 C43.2298316,24.6308551 43.1956233,24.5451183 43.1191011,24.326641 L43.0664152,25.2091301 L42.9223313,25.2691763 C41.8249129,25.7265196 40.8610637,25.6461427 39.2162627,25.1631381 L39.0255266,25.1071275 L39.3924671,18.8305128 C38.2807243,18.2027851 37.9050591,17.4836556 38.0516737,16.5914056 C38.1369883,16.0722082 38.4187468,15.5378846 38.8688576,15.0047516 L39.0514113,14.9161714 L39.4169352,14.9037808 C39.2336947,13.1064233 39.4179284,11.6628422 39.9592646,10.5995608 C40.3372276,9.8571739 40.8802907,9.2885836 41.5829788,8.89780005 C42.2449076,8.52968382 43.0404182,8.32885832 43.9622452,8.30077889 C44.8908307,8.2724936 45.6886688,8.42607743 46.3457606,8.75489707 C47.0623255,9.11347801 47.603326,9.66674268 47.9615375,10.4091744 C48.446992,11.4153309 48.5711104,12.800492 48.3234225,14.5338256 L48.568518,14.528352 C48.5358943,12.6896586 48.7604423,11.2252286 49.2352899,10.1567297 C49.5656895,9.41326686 50.0196726,8.83677439 50.5892323,8.43109186 C51.1728165,8.01542009 51.8616822,7.7880521 52.6498511,7.75425536 C53.4423265,7.72027395 54.1464928,7.89009277 54.7554028,8.25820324 C55.3524646,8.61915101 55.8408473,9.16234989 56.2116086,9.88433631 C56.7482554,10.9293529 57.046227,12.4047311 57.0966439,14.2866856 C58.108222,14.8599987 58.5097938,15.5219084 58.468556,16.330007 C58.4430314,16.8301899 58.2405335,17.3285218 57.8690441,17.8050007 L57.7867826,17.873318 L57.3163843,18.1167383 Z M30.4159392,19.9288747 L30.3898542,19.8983596 C28.8484809,17.7705621 27.9846116,16.5203372 27.7772635,16.1135272 C27.5456001,15.6590116 27.5364501,15.1292069 27.7397144,14.5376284 L27.7950201,14.4465495 C28.4806185,13.7258958 29.6025462,13.6527726 30.3836796,14.2786864 L30.5172828,14.3973985 L33.3427943,17.160408 C34.1114555,17.912066 34.1252393,19.1445281 33.3697197,19.917053 L33.3127933,19.9726941 C32.4930236,20.7408101 31.2121013,20.7214341 30.4159392,19.9288747 Z M44.3223843,12.6110547 L44.3036807,12.5472415 C44.2777841,12.4779132 44.2055641,12.4215915 44.0354376,12.3463994 C43.9087286,12.3514271 43.8258373,12.3761711 43.7713276,12.4208403 C43.6950112,12.4833796 43.6320465,12.5960531 43.574393,12.7788855 C43.4317224,13.2313268 43.4034161,13.8708745 43.4882085,14.7182354 L44.2511828,14.6830212 C44.4166915,13.752806 44.4403024,13.0724307 44.3223843,12.6110547 Z M52.7547025,11.8013729 C52.7514585,11.797821 52.7481965,11.794404 52.7449152,11.7911188 C52.749992,11.7962017 52.7555244,11.8002001 52.7594525,11.8035954 Z M52.7930175,11.8509262 C52.7604754,11.9192871 52.7287464,12.0170144 52.6943135,12.1544657 C52.5651587,12.6700332 52.5288392,13.4049723 52.5841904,14.3762967 L53.1308267,14.3508718 C53.1514778,13.4211723 53.0889841,12.7139852 52.9415681,12.2132525 C52.8916434,12.0436716 52.8440282,11.9275529 52.7930175,11.8509262 Z"></path>
        </g>
    </g>
</svg>