<?xml version="1.0" encoding="UTF-8"?>
<svg width="80px" height="32px" viewBox="0 0 80 32" version="1.1" xmlns="http://www.w3.org/2000/svg" xmlns:xlink="http://www.w3.org/1999/xlink">
    <!-- Generator: Sketch 61.2 (89653) - https://sketch.com -->
    <title>3/下册2</title>
    <desc>Created with Sketch.</desc>
    <g id="3/下册2" stroke="none" stroke-width="1" fill="none" fill-rule="evenodd">
        <path d="M33.0483466,12.2433785 L27.7475822,12.3997013 L27.1005254,23.4162581 C27.0423138,24.4073472 26.2323316,25.1873571 25.2397528,25.2081753 C24.3390958,25.2270655 23.5936554,24.5122523 23.5747652,23.6115953 L23.5746276,23.5505376 L23.5746276,23.5505376 L24.1692439,12.5079161 L19.4143122,12.644552 C18.4228477,12.6730424 17.5835407,11.9183576 17.5068967,10.9294494 C17.438205,10.0431456 18.0677606,9.26387213 18.9326967,9.1322713 L19.0991783,9.11524043 L19.0991783,9.11524043 L32.9518616,8.72427511 C33.8800449,8.69811308 34.6604134,9.39641555 34.7504535,10.3064132 L34.7584394,10.4331192 L34.7584394,10.4331192 C34.7850809,11.4048488 34.020019,12.2147233 33.0483466,12.2433785 Z M57.0550832,17.9704659 L57.4205998,22.9951407 L56.9511268,24.1688231 L54.7275548,26 C53.2905167,25.5386826 52.9003075,24.9850399 52.7095523,24.5038471 C52.5701609,24.1522228 52.5610587,23.8024773 52.505944,23.441748 L53.8256159,22.1926821 L53.5332904,18.1308961 L52.3336873,18.1913078 L52.0919665,24.7177675 C51.4804538,25.4993043 50.8480893,25.7567244 50.2596524,25.7213774 C49.6983476,25.6876603 49.098763,25.3706703 48.5351977,24.593658 L48.7728349,18.3236915 L47.8480319,18.3377748 L47.8480319,22.8740811 L47.5540172,23.6679208 L45.9006499,25.8461666 C43.1475358,25.3046823 43.5841951,24.420639 43.1414294,23.7707891 L44.3109693,22.1389286 L44.3109693,18.4875371 L43.2143709,18.5359165 L42.8261621,25.0384134 C41.6160916,25.5427039 40.4527205,25.2656743 39.2867022,24.9232668 L39.6512813,18.6870463 C38.3744307,18.0118835 38.1873793,17.3073682 38.2983654,16.631942 C38.3780948,16.1467346 38.6519247,15.6492311 39.059881,15.1660279 L39.6951872,15.1444921 C39.4653896,13.2284993 39.65055,11.7569533 40.1820529,10.7129865 C40.5391103,10.0116619 41.0483687,9.48117001 41.7044848,9.11628638 C42.3194245,8.77430207 43.0721651,8.57800724 43.9698568,8.55066299 C44.8770507,8.5230293 45.6290899,8.67581824 46.2338827,8.9784666 C46.8980299,9.31081683 47.4007023,9.82209292 47.7363754,10.5178115 C48.2118193,11.50322 48.3366444,12.921477 48.0311857,14.7904143 L48.824413,14.7726996 C48.7661436,12.8209462 48.9921805,11.3193706 49.463746,10.258257 C49.7817425,9.54270351 50.2116017,9.00700212 50.7342705,8.6347188 C51.2709199,8.2524774 51.9108025,8.03617555 52.6605612,8.00402584 C53.4153476,7.97166054 54.0684627,8.13505359 54.6260654,8.47214676 C55.1719314,8.80214462 55.6328206,9.30452429 55.9892183,9.99854029 C56.5110836,11.0147728 56.8114139,12.4899209 56.8500677,14.4364437 C58.0001162,15.0491699 58.2505231,15.6972032 58.2188809,16.3172659 C58.1964674,16.7564842 58.0183576,17.2068939 57.6718856,17.651285 L57.0550832,17.9704659 Z M33.1418575,19.7902634 C32.4203721,20.466288 31.2930228,20.4492351 30.5923146,19.7516976 L26.7406861,15.9174972 L27.9761472,14.6188659 C28.575579,13.9887846 29.5513866,13.9320838 30.217945,14.4658549 L30.3424941,14.576141 L30.3424941,14.576141 L33.1680056,17.3391506 C33.83795,17.9942754 33.8499636,19.0684562 33.1948388,19.7384006 L33.1418575,19.7902634 L33.1418575,19.7902634 Z M44.5635287,12.5449819 L44.5378755,12.4597612 C44.4911685,12.3347211 44.3916109,12.2206819 44.0255257,12.096596 C43.863969,12.1030064 43.7226765,12.1374887 43.6128685,12.2274735 C43.4820188,12.3347015 43.3999156,12.5009032 43.3359662,12.7037012 C43.163559,13.2504442 43.1504001,14.0103309 43.2652644,14.9787912 L44.4609264,14.9236068 C44.6585947,13.8922719 44.7061487,13.098101 44.5635287,12.5449819 Z M53.1813911,12.1426484 C53.114558,11.9156344 53.0393358,11.7321259 52.921797,11.6144473 C52.8793626,11.5719624 52.8277742,11.5505796 52.6766388,11.5803211 C52.5680552,11.691651 52.5073966,11.8718097 52.451807,12.0937153 C52.3017082,12.6928883 52.273916,13.5415858 52.3502635,14.6374473 L53.3740231,14.5898306 C53.4110224,13.5418678 53.3528747,12.7251324 53.1813911,12.1426484 Z" id="形状" fill="#DBDCE2" fill-rule="nonzero"></path>
    </g>
</svg>